<svg  xmlns="http://www.w3.org/2000/svg"  width="24"  height="24"  viewBox="0 0 24 24"  fill="none"  stroke="currentColor"  stroke-width="2"  stroke-linecap="round"  stroke-linejoin="round"  class="icon icon-tabler icons-tabler-outline icon-tabler-brand-bluesky"><path stroke="none" d="M0 0h24v24H0z" fill="none"/><path d="M6.335 5.144c-1.654 -1.199 -4.335 -2.127 -4.335 .826c0 .59 .35 4.953 .556 5.661c.713 2.463 3.13 2.75 5.444 2.369c-4.045 .665 -4.889 3.208 -2.667 5.555c1.702 1.397 3.305 .146 4.667 -1.555c1.362 1.701 2.965 2.952 4.667 1.555c2.222 -2.347 1.378 -4.89 -2.667 -5.555c2.314 .381 4.731 .094 5.444 -2.369c.206 -.708 .556 -5.071 .556 -5.661c0 -2.953 -2.681 -2.025 -4.335 -.826c-2.16 1.565 -3.418 3.95 -3.665 4.856c-.247 -.906 -1.505 -3.291 -3.665 -4.856z" /></svg>
